<svg width="1152" height="762" viewBox="0 0 1152 762" fill="none" xmlns="http://www.w3.org/2000/svg">
<g opacity="0.45" filter="url(#filter0_dddf_775_348)">
<path d="M51.1953 605.821C51.1953 606.848 52.0907 607.68 53.1953 607.68C54.2999 607.68 55.1953 606.848 55.1953 605.821C55.1953 604.795 54.2999 603.963 53.1953 603.963C52.0907 603.963 51.1953 604.795 51.1953 605.821Z" fill="white" fill-opacity="0.15" shape-rendering="crispEdges"/>
<path d="M55 557.504C55 558.531 55.8954 559.363 57 559.363C58.1046 559.363 59 558.531 59 557.504C59 556.478 58.1046 555.646 57 555.646C55.8954 555.646 55 556.478 55 557.504Z" fill="white" fill-opacity="0.15" shape-rendering="crispEdges"/>
<path d="M47 442.287C47 443.313 47.8954 444.145 49 444.145C50.1046 444.145 51 443.313 51 442.287C51 441.261 50.1046 440.429 49 440.429C47.8954 440.429 47 441.261 47 442.287Z" fill="white" fill-opacity="0.15" shape-rendering="crispEdges"/>
<path d="M26.1953 605.821C26.1953 606.848 27.0907 607.68 28.1953 607.68C29.2999 607.68 30.1953 606.848 30.1953 605.821C30.1953 604.795 29.2999 603.963 28.1953 603.963C27.0907 603.963 26.1953 604.795 26.1953 605.821Z" fill="white" fill-opacity="0.15" shape-rendering="crispEdges"/>
<path d="M93 598.387C93 599.414 93.8954 600.246 95 600.246C96.1046 600.246 97 599.414 97 598.387C97 597.361 96.1046 596.529 95 596.529C93.8954 596.529 93 597.361 93 598.387Z" fill="white" fill-opacity="0.15" shape-rendering="crispEdges"/>
<path d="M219 664.358C219 665.385 219.895 666.217 221 666.217C222.105 666.217 223 665.385 223 664.358C223 663.332 222.105 662.5 221 662.5C219.895 662.5 219 663.332 219 664.358Z" fill="white" fill-opacity="0.15" shape-rendering="crispEdges"/>
<path d="M171 627.192C171 628.218 171.895 629.05 173 629.05C174.105 629.05 175 628.218 175 627.192C175 626.165 174.105 625.333 173 625.333C171.895 625.333 171 626.165 171 627.192Z" fill="white" fill-opacity="0.15" shape-rendering="crispEdges"/>
<path d="M26 499.895C26 500.922 26.8954 501.754 28 501.754C29.1046 501.754 30 500.922 30 499.895C30 498.869 29.1046 498.037 28 498.037C26.8954 498.037 26 498.869 26 499.895Z" fill="white" fill-opacity="0.15" shape-rendering="crispEdges"/>
<path d="M22 537.991C22 539.018 22.8954 539.85 24 539.85C25.1046 539.85 26 539.018 26 537.991C26 536.965 25.1046 536.133 24 536.133C22.8954 536.133 22 536.965 22 537.991Z" fill="white" fill-opacity="0.15" shape-rendering="crispEdges"/>
<path d="M73 646.705C73 647.731 73.8954 648.563 75 648.563C76.1046 648.563 77 647.731 77 646.705C77 645.678 76.1046 644.846 75 644.846C73.8954 644.846 73 645.678 73 646.705Z" fill="white" fill-opacity="0.15" shape-rendering="crispEdges"/>
<path d="M30 323.353C30 324.379 30.8954 325.211 32 325.211C33.1046 325.211 34 324.379 34 323.353C34 322.327 33.1046 321.495 32 321.495C30.8954 321.495 30 322.327 30 323.353Z" fill="white" fill-opacity="0.15" shape-rendering="crispEdges"/>
<path d="M18 367.954C18 368.98 18.8954 369.812 20 369.812C21.1046 369.812 22 368.98 22 367.954C22 366.927 21.1046 366.095 20 366.095C18.8954 366.095 18 366.927 18 367.954Z" fill="white" fill-opacity="0.15" shape-rendering="crispEdges"/>
<path d="M97 110.572C97 111.598 97.8954 112.43 99 112.43C100.105 112.43 101 111.598 101 110.572C101 109.545 100.105 108.713 99 108.713C97.8954 108.713 97 109.545 97 110.572Z" fill="white" fill-opacity="0.15" shape-rendering="crispEdges"/>
<path d="M130 63.1843C130 64.2107 130.895 65.0427 132 65.0427C133.105 65.0427 134 64.2107 134 63.1843C134 62.158 133.105 61.326 132 61.326C130.895 61.326 130 62.158 130 63.1843Z" fill="white" fill-opacity="0.15" shape-rendering="crispEdges"/>
<path d="M40 167.25C40 168.277 40.8954 169.109 42 169.109C43.1046 169.109 44 168.277 44 167.25C44 166.224 43.1046 165.392 42 165.392C40.8954 165.392 40 166.224 40 167.25Z" fill="white" fill-opacity="0.15" shape-rendering="crispEdges"/>
<path d="M273 36.2375C273 37.2638 273.895 38.0959 275 38.0959C276.105 38.0959 277 37.2638 277 36.2375C277 35.2112 276.105 34.3792 275 34.3792C273.895 34.3792 273 35.2112 273 36.2375Z" fill="white" fill-opacity="0.15" shape-rendering="crispEdges"/>
<path d="M195 108.714C195 109.74 195.895 110.572 197 110.572C198.105 110.572 199 109.74 199 108.714C199 107.687 198.105 106.855 197 106.855C195.895 106.855 195 107.687 195 108.714Z" fill="white" fill-opacity="0.15" shape-rendering="crispEdges"/>
<path d="M97 70.6173C97 71.6436 97.8954 72.4756 99 72.4756C100.105 72.4756 101 71.6436 101 70.6173C101 69.591 100.105 68.759 99 68.759C97.8954 68.759 97 69.591 97 70.6173Z" fill="white" fill-opacity="0.15" shape-rendering="crispEdges"/>
<path d="M244 16.7255C244 17.7519 244.895 18.5839 246 18.5839C247.105 18.5839 248 17.7519 248 16.7255C248 15.6992 247.105 14.8672 246 14.8672C244.895 14.8672 244 15.6992 244 16.7255Z" fill="white" fill-opacity="0.15" shape-rendering="crispEdges"/>
<path d="M183 66.9008C183 67.9271 183.895 68.7592 185 68.7592C186.105 68.7592 187 67.9271 187 66.9008C187 65.8745 186.105 65.0425 185 65.0425C183.895 65.0425 183 65.8745 183 66.9008Z" fill="white" fill-opacity="0.15" shape-rendering="crispEdges"/>
<path d="M351.825 678.898C351.596 677.894 352.287 676.907 353.367 676.695C354.448 676.482 355.51 677.124 355.738 678.128C355.967 679.132 355.276 680.119 354.196 680.331C353.115 680.544 352.054 679.902 351.825 678.898Z" fill="white" fill-opacity="0.15" shape-rendering="crispEdges"/>
<path d="M402.438 712.633C402.21 711.629 402.9 710.643 403.981 710.43C405.061 710.218 406.123 710.86 406.352 711.864C406.58 712.868 405.89 713.854 404.809 714.066C403.728 714.279 402.667 713.637 402.438 712.633Z" fill="white" fill-opacity="0.15" shape-rendering="crispEdges"/>
<path d="M240.587 594.399C240.358 593.395 241.049 592.409 242.129 592.196C243.21 591.984 244.271 592.626 244.5 593.63C244.729 594.634 244.038 595.62 242.957 595.832C241.877 596.045 240.815 595.403 240.587 594.399Z" fill="white" fill-opacity="0.15" shape-rendering="crispEdges"/>
<path d="M369.403 738.123C369.174 737.119 369.865 736.133 370.946 735.921C372.026 735.708 373.088 736.35 373.316 737.354C373.545 738.358 372.854 739.344 371.774 739.557C370.693 739.769 369.632 739.128 369.403 738.123Z" fill="white" fill-opacity="0.15" shape-rendering="crispEdges"/>
<path d="M497.731 677.749C497.502 676.745 498.193 675.758 499.274 675.546C500.354 675.333 501.416 675.975 501.645 676.979C501.873 677.983 501.183 678.97 500.102 679.182C499.021 679.395 497.96 678.753 497.731 677.749Z" fill="white" fill-opacity="0.15" shape-rendering="crispEdges"/>
<path d="M405.27 621.85C405.042 620.846 405.732 619.859 406.813 619.647C407.893 619.434 408.955 620.076 409.184 621.08C409.412 622.084 408.722 623.07 407.641 623.283C406.56 623.495 405.499 622.854 405.27 621.85Z" fill="white" fill-opacity="0.15" shape-rendering="crispEdges"/>
<path d="M317.884 677.974C317.655 676.97 318.345 675.983 319.426 675.771C320.507 675.558 321.568 676.2 321.797 677.204C322.026 678.208 321.335 679.195 320.254 679.407C319.174 679.62 318.112 678.978 317.884 677.974Z" fill="white" fill-opacity="0.15" shape-rendering="crispEdges"/>
<path d="M269.134 652.418C268.905 651.414 269.595 650.428 270.676 650.216C271.757 650.003 272.818 650.645 273.047 651.649C273.276 652.653 272.585 653.639 271.504 653.852C270.424 654.064 269.362 653.423 269.134 652.418Z" fill="white" fill-opacity="0.15" shape-rendering="crispEdges"/>
<path d="M510.762 636.246C510.534 635.242 511.224 634.256 512.305 634.043C513.386 633.831 514.447 634.473 514.676 635.477C514.904 636.481 514.214 637.467 513.133 637.68C512.053 637.892 510.991 637.25 510.762 636.246Z" fill="white" fill-opacity="0.15" shape-rendering="crispEdges"/>
<path d="M271.005 727.081C270.776 726.076 271.467 725.09 272.547 724.878C273.628 724.665 274.689 725.307 274.918 726.311C275.147 727.315 274.456 728.301 273.375 728.514C272.295 728.726 271.233 728.085 271.005 727.081Z" fill="white" fill-opacity="0.15" shape-rendering="crispEdges"/>
<path d="M402.848 665.065C402.62 664.061 403.31 663.075 404.391 662.862C405.472 662.65 406.533 663.292 406.762 664.296C406.99 665.3 406.3 666.286 405.219 666.498C404.138 666.711 403.077 666.069 402.848 665.065Z" fill="white" fill-opacity="0.15" shape-rendering="crispEdges"/>
<path d="M301.669 732.448C301.44 731.444 302.131 730.458 303.211 730.245C304.292 730.033 305.353 730.674 305.582 731.678C305.811 732.682 305.12 733.669 304.039 733.881C302.959 734.094 301.897 733.452 301.669 732.448Z" fill="white" fill-opacity="0.15" shape-rendering="crispEdges"/>
<path d="M564.239 696.012C564.01 695.008 564.701 694.021 565.782 693.809C566.862 693.596 567.924 694.238 568.152 695.242C568.381 696.246 567.69 697.233 566.61 697.445C565.529 697.658 564.468 697.016 564.239 696.012Z" fill="white" fill-opacity="0.15" shape-rendering="crispEdges"/>
<path d="M1060.21 143.157C1059.39 143.846 1059.33 145.021 1060.07 145.782C1060.81 146.543 1062.07 146.603 1062.89 145.914C1063.71 145.226 1063.77 144.051 1063.03 143.29C1062.29 142.528 1061.03 142.469 1060.21 143.157Z" fill="white" fill-opacity="0.15" shape-rendering="crispEdges"/>
<path d="M870.002 112.537C869.183 113.225 869.119 114.4 869.859 115.161C870.6 115.923 871.865 115.982 872.684 115.294C873.504 114.605 873.568 113.43 872.827 112.669C872.086 111.908 870.821 111.848 870.002 112.537Z" fill="white" fill-opacity="0.15" shape-rendering="crispEdges"/>
<path d="M1049.56 104.503C1048.75 105.191 1048.68 106.366 1049.42 107.127C1050.16 107.889 1051.43 107.948 1052.25 107.26C1053.07 106.572 1053.13 105.396 1052.39 104.635C1051.65 103.874 1050.38 103.814 1049.56 104.503Z" fill="white" fill-opacity="0.15" shape-rendering="crispEdges"/>
<path d="M1115.33 223.367C1114.51 224.055 1114.45 225.231 1115.19 225.992C1115.93 226.753 1117.19 226.813 1118.01 226.124C1118.83 225.436 1118.9 224.261 1118.15 223.5C1117.41 222.738 1116.15 222.679 1115.33 223.367Z" fill="white" fill-opacity="0.15" shape-rendering="crispEdges"/>
<path d="M914.244 119.214C913.425 119.902 913.361 121.077 914.102 121.839C914.842 122.6 916.107 122.659 916.927 121.971C917.746 121.283 917.81 120.108 917.069 119.346C916.328 118.585 915.064 118.526 914.244 119.214Z" fill="white" fill-opacity="0.15" shape-rendering="crispEdges"/>
<path d="M1111.46 190.293C1110.64 190.981 1110.58 192.156 1111.32 192.918C1112.06 193.679 1113.32 193.738 1114.14 193.05C1114.96 192.362 1115.02 191.187 1114.28 190.425C1113.54 189.664 1112.28 189.605 1111.46 190.293Z" fill="white" fill-opacity="0.15" shape-rendering="crispEdges"/>
<path d="M1099.67 264.078C1098.85 264.766 1098.79 265.942 1099.53 266.703C1100.27 267.464 1101.53 267.523 1102.35 266.835C1103.17 266.147 1103.24 264.972 1102.49 264.21C1101.75 263.449 1100.49 263.39 1099.67 264.078Z" fill="white" fill-opacity="0.15" shape-rendering="crispEdges"/>
<path d="M962.92 59.7836C962.101 60.4719 962.037 61.647 962.777 62.4084C963.518 63.1697 964.783 63.229 965.602 62.5407C966.422 61.8525 966.485 60.6773 965.745 59.916C965.004 59.1546 963.739 59.0954 962.92 59.7836Z" fill="white" fill-opacity="0.15" shape-rendering="crispEdges"/>
<path d="M1030.49 181.894C1029.67 182.583 1029.61 183.758 1030.35 184.519C1031.09 185.28 1032.36 185.34 1033.18 184.651C1034 183.963 1034.06 182.788 1033.32 182.027C1032.58 181.265 1031.31 181.206 1030.49 181.894Z" fill="white" fill-opacity="0.15" shape-rendering="crispEdges"/>
<path d="M991.139 72.1608C990.319 72.8491 990.255 74.0242 990.996 74.7856C991.737 75.5469 993.002 75.6062 993.821 74.9179C994.64 74.2296 994.704 73.0545 993.964 72.2931C993.223 71.5318 991.958 71.4725 991.139 72.1608Z" fill="white" fill-opacity="0.15" shape-rendering="crispEdges"/>
<path d="M1180.72 244.85C1179.9 245.539 1179.83 246.714 1180.57 247.475C1181.32 248.237 1182.58 248.296 1183.4 247.608C1184.22 246.919 1184.28 245.744 1183.54 244.983C1182.8 244.221 1181.54 244.162 1180.72 244.85Z" fill="white" fill-opacity="0.15" shape-rendering="crispEdges"/>
<path d="M955.959 404.956C956.865 405.542 957.088 406.701 956.457 407.543C955.825 408.385 954.579 408.592 953.672 408.005C952.766 407.419 952.543 406.26 953.174 405.418C953.806 404.576 955.052 404.369 955.959 404.956Z" fill="white" fill-opacity="0.15" shape-rendering="crispEdges"/>
<path d="M906.873 530.584C907.779 531.17 908.002 532.328 907.371 533.171C906.739 534.013 905.493 534.22 904.586 533.633C903.68 533.047 903.457 531.888 904.088 531.046C904.72 530.204 905.966 529.997 906.873 530.584Z" fill="white" fill-opacity="0.15" shape-rendering="crispEdges"/>
<path d="M1015.45 512.54C1016.36 513.127 1016.58 514.285 1015.95 515.127C1015.32 515.969 1014.07 516.176 1013.17 515.59C1012.26 515.003 1012.04 513.845 1012.67 513.003C1013.3 512.161 1014.55 511.953 1015.45 512.54Z" fill="white" fill-opacity="0.15" shape-rendering="crispEdges"/>
<path d="M1037.83 416.047C1038.74 416.633 1038.96 417.792 1038.33 418.634C1037.7 419.476 1036.45 419.683 1035.54 419.096C1034.64 418.51 1034.41 417.352 1035.05 416.509C1035.68 415.667 1036.92 415.46 1037.83 416.047Z" fill="white" fill-opacity="0.15" shape-rendering="crispEdges"/>
<path d="M1092.2 403.676C1093.1 404.263 1093.33 405.421 1092.69 406.263C1092.06 407.105 1090.82 407.312 1089.91 406.726C1089 406.139 1088.78 404.981 1089.41 404.139C1090.04 403.297 1091.29 403.089 1092.2 403.676Z" fill="white" fill-opacity="0.15" shape-rendering="crispEdges"/>
<path d="M927.939 569.133C928.846 569.719 929.068 570.878 928.437 571.72C927.806 572.562 926.559 572.769 925.653 572.182C924.746 571.596 924.523 570.438 925.155 569.595C925.786 568.753 927.033 568.546 927.939 569.133Z" fill="white" fill-opacity="0.15" shape-rendering="crispEdges"/>
<path d="M1035.83 350.431C1036.74 351.017 1036.96 352.175 1036.33 353.018C1035.7 353.86 1034.45 354.067 1033.55 353.48C1032.64 352.894 1032.42 351.735 1033.05 350.893C1033.68 350.051 1034.93 349.844 1035.83 350.431Z" fill="white" fill-opacity="0.15" shape-rendering="crispEdges"/>
<path d="M985.392 479.491C986.299 480.078 986.522 481.236 985.89 482.078C985.259 482.92 984.012 483.127 983.106 482.541C982.2 481.954 981.977 480.796 982.608 479.954C983.239 479.111 984.486 478.904 985.392 479.491Z" fill="white" fill-opacity="0.15" shape-rendering="crispEdges"/>
<path d="M844.927 559.566C845.834 560.153 846.057 561.311 845.425 562.154C844.794 562.996 843.547 563.203 842.641 562.616C841.735 562.03 841.512 560.871 842.143 560.029C842.774 559.187 844.021 558.98 844.927 559.566Z" fill="white" fill-opacity="0.15" shape-rendering="crispEdges"/>
<path d="M1057.21 520.401C1056.39 521.089 1056.33 522.264 1057.07 523.025C1057.81 523.787 1059.07 523.846 1059.89 523.158C1060.71 522.47 1060.77 521.294 1060.03 520.533C1059.29 519.772 1058.03 519.712 1057.21 520.401Z" fill="white" fill-opacity="0.15" shape-rendering="crispEdges"/>
<path d="M1046.56 481.746C1045.75 482.434 1045.68 483.609 1046.42 484.371C1047.16 485.132 1048.43 485.191 1049.25 484.503C1050.07 483.815 1050.13 482.64 1049.39 481.878C1048.65 481.117 1047.38 481.058 1046.56 481.746Z" fill="white" fill-opacity="0.15" shape-rendering="crispEdges"/>
<path d="M966.857 502.352C966.038 503.041 965.974 504.216 966.715 504.977C967.456 505.739 968.72 505.798 969.54 505.11C970.359 504.421 970.423 503.246 969.682 502.485C968.942 501.723 967.677 501.664 966.857 502.352Z" fill="white" fill-opacity="0.15" shape-rendering="crispEdges"/>
<path d="M1108.46 567.536C1107.64 568.224 1107.58 569.4 1108.32 570.161C1109.06 570.922 1110.32 570.982 1111.14 570.293C1111.96 569.605 1112.02 568.43 1111.28 567.669C1110.54 566.907 1109.28 566.848 1108.46 567.536Z" fill="white" fill-opacity="0.15" shape-rendering="crispEdges"/>
<path d="M959.92 437.028C959.101 437.716 959.037 438.891 959.777 439.653C960.518 440.414 961.783 440.473 962.602 439.785C963.422 439.097 963.485 437.922 962.745 437.16C962.004 436.399 960.739 436.34 959.92 437.028Z" fill="white" fill-opacity="0.15" shape-rendering="crispEdges"/>
<path d="M1027.49 559.138C1026.67 559.827 1026.61 561.002 1027.35 561.763C1028.09 562.525 1029.36 562.584 1030.18 561.896C1031 561.207 1031.06 560.032 1030.32 559.271C1029.58 558.51 1028.31 558.45 1027.49 559.138Z" fill="white" fill-opacity="0.15" shape-rendering="crispEdges"/>
<path d="M988.139 449.405C987.319 450.093 987.255 451.269 987.996 452.03C988.737 452.791 990.002 452.85 990.821 452.162C991.64 451.474 991.704 450.299 990.964 449.537C990.223 448.776 988.958 448.717 988.139 449.405Z" fill="white" fill-opacity="0.15" shape-rendering="crispEdges"/>
<path d="M1177.72 622.095C1176.9 622.783 1176.83 623.958 1177.57 624.719C1178.32 625.481 1179.58 625.54 1180.4 624.852C1181.22 624.164 1181.28 622.988 1180.54 622.227C1179.8 621.466 1178.54 621.406 1177.72 622.095Z" fill="white" fill-opacity="0.15" shape-rendering="crispEdges"/>
<path d="M377.92 84.3324C377.1 85.0207 377.037 86.1958 377.777 86.9572C378.518 87.7185 379.783 87.7778 380.602 87.0895C381.422 86.4013 381.485 85.2261 380.745 84.4648C380.004 83.7034 378.739 83.6442 377.92 84.3324Z" fill="white" fill-opacity="0.15" shape-rendering="crispEdges"/>
<path d="M440.209 84.6194C439.39 85.3077 439.326 86.4828 440.067 87.2442C440.807 88.0055 442.072 88.0648 442.891 87.3765C443.711 86.6883 443.775 85.5131 443.034 84.7518C442.293 83.9904 441.028 83.9312 440.209 84.6194Z" fill="white" fill-opacity="0.15" shape-rendering="crispEdges"/>
<path d="M234.482 92.0848C233.663 92.7731 233.599 93.9482 234.34 94.7096C235.081 95.4709 236.345 95.5302 237.165 94.8419C237.984 94.1536 238.048 92.9785 237.307 92.2172C236.567 91.4558 235.302 91.3966 234.482 92.0848Z" fill="white" fill-opacity="0.15" shape-rendering="crispEdges"/>
<path d="M250.002 53.9987C249.183 54.687 249.119 55.8621 249.859 56.6235C250.6 57.3848 251.865 57.4441 252.684 56.7558C253.504 56.0676 253.567 54.8924 252.827 54.1311C252.086 53.3697 250.821 53.3105 250.002 53.9987Z" fill="white" fill-opacity="0.15" shape-rendering="crispEdges"/>
<path d="M429.564 45.9649C428.745 46.6531 428.681 47.8283 429.422 48.5896C430.163 49.351 431.427 49.4102 432.247 48.722C433.066 48.0337 433.13 46.8586 432.389 46.0972C431.649 45.3359 430.384 45.2766 429.564 45.9649Z" fill="white" fill-opacity="0.15" shape-rendering="crispEdges"/>
<path d="M349.857 66.5713C349.038 67.2595 348.974 68.4347 349.715 69.196C350.456 69.9574 351.72 70.0166 352.54 69.3284C353.359 68.6401 353.423 67.465 352.682 66.7036C351.942 65.9422 350.677 65.883 349.857 66.5713Z" fill="white" fill-opacity="0.15" shape-rendering="crispEdges"/>
<path d="M491.459 131.754C490.64 132.442 490.576 133.618 491.317 134.379C492.057 135.14 493.322 135.2 494.141 134.511C494.961 133.823 495.025 132.648 494.284 131.887C493.543 131.125 492.278 131.066 491.459 131.754Z" fill="white" fill-opacity="0.15" shape-rendering="crispEdges"/>
<path d="M410.494 123.356C409.675 124.045 409.611 125.22 410.352 125.981C411.092 126.743 412.357 126.802 413.177 126.114C413.996 125.425 414.06 124.25 413.319 123.489C412.578 122.727 411.314 122.668 410.494 123.356Z" fill="white" fill-opacity="0.15" shape-rendering="crispEdges"/>
<path d="M606.637 674.117C606.271 675.086 606.82 676.146 607.862 676.487C608.904 676.827 610.045 676.317 610.411 675.349C610.777 674.381 610.229 673.32 609.187 672.98C608.145 672.64 607.003 673.149 606.637 674.117Z" fill="white" fill-opacity="0.15" shape-rendering="crispEdges"/>
<path d="M661.509 646.723C661.143 647.692 661.691 648.752 662.733 649.092C663.775 649.433 664.917 648.923 665.283 647.955C665.649 646.987 665.101 645.926 664.058 645.586C663.016 645.246 661.875 645.755 661.509 646.723Z" fill="white" fill-opacity="0.15" shape-rendering="crispEdges"/>
<path d="M484.606 744.592C484.24 745.56 484.788 746.621 485.83 746.961C486.873 747.301 488.014 746.792 488.38 745.823C488.746 744.855 488.198 743.794 487.156 743.454C486.114 743.114 484.972 743.623 484.606 744.592Z" fill="white" fill-opacity="0.15" shape-rendering="crispEdges"/>
<path d="M632.286 617.488C631.92 618.456 632.468 619.517 633.51 619.857C634.552 620.197 635.694 619.688 636.06 618.719C636.426 617.751 635.878 616.69 634.836 616.35C633.794 616.01 632.652 616.519 632.286 617.488Z" fill="white" fill-opacity="0.15" shape-rendering="crispEdges"/>
<path d="M651.727 737.089C651.361 738.057 651.909 739.118 652.952 739.458C653.994 739.799 655.135 739.289 655.501 738.321C655.867 737.353 655.319 736.292 654.277 735.952C653.235 735.612 652.093 736.121 651.727 737.089Z" fill="white" fill-opacity="0.15" shape-rendering="crispEdges"/>
<path d="M730.766 665.387C730.4 666.356 730.948 667.416 731.991 667.756C733.033 668.097 734.174 667.587 734.54 666.619C734.906 665.651 734.358 664.59 733.316 664.25C732.274 663.91 731.132 664.419 730.766 665.387Z" fill="white" fill-opacity="0.15" shape-rendering="crispEdges"/>
<path d="M655.317 693.943C654.951 694.911 655.499 695.972 656.541 696.312C657.584 696.653 658.725 696.143 659.091 695.175C659.457 694.207 658.909 693.146 657.867 692.806C656.825 692.466 655.683 692.975 655.317 693.943Z" fill="white" fill-opacity="0.15" shape-rendering="crispEdges"/>
<path d="M564.329 615.006C563.963 615.975 564.511 617.035 565.553 617.376C566.595 617.716 567.737 617.206 568.103 616.238C568.469 615.27 567.921 614.209 566.879 613.869C565.836 613.529 564.695 614.038 564.329 615.006Z" fill="white" fill-opacity="0.15" shape-rendering="crispEdges"/>
<path d="M819.657 682.58C819.291 683.548 819.839 684.609 820.881 684.949C821.923 685.289 823.065 684.78 823.431 683.812C823.797 682.843 823.249 681.783 822.207 681.442C821.165 681.102 820.023 681.612 819.657 682.58Z" fill="white" fill-opacity="0.15" shape-rendering="crispEdges"/>
<path d="M221 41.8132C221 42.8395 221.895 43.6715 223 43.6715C224.105 43.6715 225 42.8395 225 41.8132C225 40.7868 224.105 39.9548 223 39.9548C221.895 39.9548 221 40.7868 221 41.8132Z" fill="white" fill-opacity="0.15" shape-rendering="crispEdges"/>
<path d="M119 602.104C119 603.13 119.895 603.962 121 603.962C122.105 603.962 123 603.13 123 602.104C123 601.078 122.105 600.246 121 600.246C119.895 600.246 119 601.078 119 602.104Z" fill="white" fill-opacity="0.15" shape-rendering="crispEdges"/>
<path d="M117 668.076C117 669.102 117.895 669.934 119 669.934C120.105 669.934 121 669.102 121 668.076C121 667.049 120.105 666.217 119 666.217C117.895 666.217 117 667.049 117 668.076Z" fill="white" fill-opacity="0.15" shape-rendering="crispEdges"/>
<path d="M880.898 615.031C881.583 615.836 881.435 617.005 880.568 617.641C879.701 618.277 878.444 618.14 877.759 617.335C877.075 616.529 877.222 615.361 878.089 614.725C878.956 614.088 880.214 614.226 880.898 615.031Z" fill="white" fill-opacity="0.15" shape-rendering="crispEdges"/>
<path d="M819.429 605.677C820.114 606.482 819.966 607.651 819.099 608.287C818.233 608.923 816.975 608.786 816.29 607.98C815.606 607.175 815.753 606.006 816.62 605.37C817.487 604.734 818.745 604.871 819.429 605.677Z" fill="white" fill-opacity="0.15" shape-rendering="crispEdges"/>
<path d="M1020.95 644.868C1021.63 645.673 1021.48 646.842 1020.62 647.478C1019.75 648.114 1018.49 647.977 1017.81 647.171C1017.12 646.366 1017.27 645.197 1018.14 644.561C1019 643.925 1020.26 644.062 1020.95 644.868Z" fill="white" fill-opacity="0.15" shape-rendering="crispEdges"/>
<path d="M1012.47 604.911C1013.15 605.717 1013.01 606.885 1012.14 607.521C1011.27 608.157 1010.01 608.02 1009.33 607.215C1008.64 606.409 1008.79 605.241 1009.66 604.605C1010.53 603.969 1011.78 604.106 1012.47 604.911Z" fill="white" fill-opacity="0.15" shape-rendering="crispEdges"/>
<path d="M860.258 688.194C860.942 689 860.794 690.168 859.928 690.804C859.061 691.44 857.803 691.303 857.119 690.498C856.434 689.692 856.582 688.524 857.448 687.888C858.315 687.251 859.573 687.389 860.258 688.194Z" fill="white" fill-opacity="0.15" shape-rendering="crispEdges"/>
<path d="M911.754 601.859C912.438 602.665 912.291 603.834 911.424 604.47C910.557 605.106 909.299 604.969 908.615 604.163C907.93 603.358 908.078 602.189 908.945 601.553C909.811 600.917 911.069 601.054 911.754 601.859Z" fill="white" fill-opacity="0.15" shape-rendering="crispEdges"/>
<path d="M967.644 604.652C968.329 605.457 968.181 606.626 967.314 607.262C966.448 607.898 965.19 607.761 964.505 606.956C963.821 606.15 963.968 604.982 964.835 604.345C965.702 603.709 966.96 603.846 967.644 604.652Z" fill="white" fill-opacity="0.15" shape-rendering="crispEdges"/>
<path d="M760.445 644.226C761.13 645.031 760.982 646.2 760.115 646.836C759.248 647.472 757.991 647.335 757.306 646.529C756.621 645.724 756.769 644.555 757.636 643.919C758.503 643.283 759.76 643.42 760.445 644.226Z" fill="white" fill-opacity="0.15" shape-rendering="crispEdges"/>
<path d="M841.785 648.471C842.469 649.276 842.322 650.445 841.455 651.081C840.588 651.717 839.331 651.58 838.646 650.775C837.961 649.969 838.109 648.801 838.976 648.165C839.843 647.528 841.1 647.666 841.785 648.471Z" fill="white" fill-opacity="0.15" shape-rendering="crispEdges"/>
<path d="M682.379 687.307C683.063 688.113 682.916 689.281 682.049 689.917C681.182 690.553 679.924 690.416 679.24 689.611C678.555 688.805 678.703 687.637 679.57 687.001C680.436 686.365 681.694 686.502 682.379 687.307Z" fill="white" fill-opacity="0.15" shape-rendering="crispEdges"/>
<path d="M620.928 120.891C621.054 121.911 620.266 122.832 619.168 122.949C618.071 123.066 617.079 122.334 616.954 121.314C616.828 120.294 617.616 119.373 618.714 119.256C619.811 119.14 620.802 119.872 620.928 120.891Z" fill="white" fill-opacity="0.15" shape-rendering="crispEdges"/>
<path d="M573.971 82.8618C574.096 83.8815 573.309 84.8027 572.211 84.9193C571.114 85.036 570.122 84.3039 569.997 83.2843C569.871 82.2646 570.659 81.3434 571.757 81.2267C572.854 81.1101 573.845 81.8421 573.971 82.8618Z" fill="white" fill-opacity="0.15" shape-rendering="crispEdges"/>
<path d="M609.451 60.3833C609.577 61.4029 608.789 62.3241 607.692 62.4408C606.594 62.5575 605.603 61.8254 605.477 60.8057C605.352 59.7861 606.14 58.8649 607.237 58.7482C608.334 58.6315 609.326 59.3636 609.451 60.3833Z" fill="white" fill-opacity="0.15" shape-rendering="crispEdges"/>
<path d="M475.557 109.223C475.682 110.242 474.895 111.163 473.797 111.28C472.7 111.397 471.708 110.665 471.583 109.645C471.457 108.625 472.245 107.704 473.342 107.587C474.44 107.471 475.431 108.203 475.557 109.223Z" fill="white" fill-opacity="0.15" shape-rendering="crispEdges"/>
<path d="M654.623 124.789C654.749 125.809 653.961 126.73 652.864 126.847C651.766 126.964 650.775 126.231 650.649 125.212C650.524 124.192 651.312 123.271 652.409 123.154C653.506 123.038 654.498 123.77 654.623 124.789Z" fill="white" fill-opacity="0.15" shape-rendering="crispEdges"/>
<path d="M501.983 86.7746C502.108 87.7942 501.32 88.7154 500.223 88.8321C499.126 88.9487 498.134 88.2167 498.009 87.197C497.883 86.1774 498.671 85.2562 499.768 85.1395C500.866 85.0228 501.857 85.7549 501.983 86.7746Z" fill="white" fill-opacity="0.15" shape-rendering="crispEdges"/>
<path d="M458.358 149.396C458.483 150.415 457.695 151.336 456.598 151.453C455.501 151.57 454.509 150.838 454.384 149.818C454.258 148.798 455.046 147.877 456.143 147.76C457.241 147.644 458.232 148.376 458.358 149.396Z" fill="white" fill-opacity="0.15" shape-rendering="crispEdges"/>
<path d="M706.283 80.0184C706.409 81.0381 705.621 81.9593 704.524 82.0759C703.426 82.1926 702.435 81.4606 702.309 80.4409C702.184 79.4212 702.972 78.5 704.069 78.3834C705.167 78.2667 706.158 78.9987 706.283 80.0184Z" fill="white" fill-opacity="0.15" shape-rendering="crispEdges"/>
<path d="M568.725 130.183C568.85 131.202 568.063 132.123 566.965 132.24C565.868 132.357 564.876 131.625 564.751 130.605C564.625 129.585 565.413 128.664 566.51 128.548C567.608 128.431 568.599 129.163 568.725 130.183Z" fill="white" fill-opacity="0.15" shape-rendering="crispEdges"/>
<path d="M411.201 85.2024C411.327 86.2221 410.539 87.1433 409.442 87.2599C408.344 87.3766 407.353 86.6446 407.227 85.6249C407.102 84.6052 407.89 83.684 408.987 83.5674C410.084 83.4507 411.076 84.1827 411.201 85.2024Z" fill="white" fill-opacity="0.15" shape-rendering="crispEdges"/>
<path d="M880.454 86.7007C880.711 87.7001 880.039 88.7001 878.953 88.9342C877.867 89.1682 876.778 88.5478 876.521 87.5483C876.263 86.5489 876.935 85.5489 878.021 85.3148C879.108 85.0808 880.197 85.7012 880.454 86.7007Z" fill="white" fill-opacity="0.15" shape-rendering="crispEdges"/>
<path d="M828.439 53.9754C828.696 54.9749 828.024 55.9748 826.938 56.2089C825.851 56.443 824.762 55.8225 824.505 54.8231C824.248 53.8237 824.92 52.8237 826.006 52.5896C827.092 52.3555 828.181 52.976 828.439 53.9754Z" fill="white" fill-opacity="0.15" shape-rendering="crispEdges"/>
<path d="M995.052 168.968C995.309 169.967 994.637 170.967 993.551 171.201C992.465 171.435 991.375 170.815 991.118 169.816C990.861 168.816 991.533 167.816 992.619 167.582C993.705 167.348 994.794 167.968 995.052 168.968Z" fill="white" fill-opacity="0.15" shape-rendering="crispEdges"/>
<path d="M861.149 27.8267C861.407 28.8262 860.735 29.8261 859.648 30.0602C858.562 30.2943 857.473 29.6738 857.216 28.6744C856.959 27.6749 857.631 26.675 858.717 26.4409C859.803 26.2068 860.892 26.8273 861.149 27.8267Z" fill="white" fill-opacity="0.15" shape-rendering="crispEdges"/>
<path d="M733.071 90.7634C733.329 91.7629 732.657 92.7628 731.57 92.9969C730.484 93.231 729.395 92.6105 729.138 91.6111C728.88 90.6117 729.552 89.6117 730.639 89.3776C731.725 89.1435 732.814 89.764 733.071 90.7634Z" fill="white" fill-opacity="0.15" shape-rendering="crispEdges"/>
<path d="M914.767 86.9414C915.024 87.9408 914.352 88.9408 913.266 89.1749C912.179 89.409 911.09 88.7885 910.833 87.7891C910.576 86.7896 911.248 85.7896 912.334 85.5556C913.42 85.3215 914.509 85.942 914.767 86.9414Z" fill="white" fill-opacity="0.15" shape-rendering="crispEdges"/>
<path d="M756.704 65.6156C756.961 66.6151 756.289 67.615 755.203 67.8491C754.117 68.0832 753.028 67.4627 752.771 66.4633C752.513 65.4638 753.185 64.4639 754.271 64.2298C755.358 63.9957 756.447 64.6162 756.704 65.6156Z" fill="white" fill-opacity="0.15" shape-rendering="crispEdges"/>
<path d="M720.989 132.521C721.247 133.52 720.575 134.52 719.488 134.754C718.402 134.988 717.313 134.368 717.056 133.368C716.798 132.369 717.47 131.369 718.557 131.135C719.643 130.901 720.732 131.521 720.989 132.521Z" fill="white" fill-opacity="0.15" shape-rendering="crispEdges"/>
<path d="M960.849 36.9022C961.106 37.9017 960.434 38.9016 959.348 39.1357C958.261 39.3698 957.172 38.7493 956.915 37.7499C956.658 36.7504 957.33 35.7505 958.416 35.5164C959.502 35.2823 960.591 35.9028 960.849 36.9022Z" fill="white" fill-opacity="0.15" shape-rendering="crispEdges"/>
<path d="M829.271 101.549C829.528 102.548 828.856 103.548 827.77 103.783C826.683 104.017 825.594 103.396 825.337 102.397C825.08 101.397 825.752 100.397 826.838 100.163C827.924 99.9291 829.013 100.55 829.271 101.549Z" fill="white" fill-opacity="0.15" shape-rendering="crispEdges"/>
<path d="M929.732 32.1497C929.989 33.1491 929.317 34.1491 928.231 34.3831C927.144 34.6172 926.055 33.9968 925.798 32.9973C925.541 31.9979 926.213 30.9979 927.299 30.7639C928.385 30.5298 929.474 31.1502 929.732 32.1497Z" fill="white" fill-opacity="0.15" shape-rendering="crispEdges"/>
</g>
<g opacity="0.26" filter="url(#filter1_dddf_775_348)">
<path d="M52.5401 606.752L75.0493 647.53L-38.9971 749L-46 620.028L25.0289 539.895L32.532 501.488L48.0383 443.641L-22.4904 485.841L25.0289 365.404L-25.9919 378.207L32.532 321.782L-22.4904 307.557L41.0354 167.205L-30.4937 177.637L21.5275 129.747H-22.4904L-18.4888 45.3463L41.0354 29.2248L69.5471 22.1124L41.0354 85.6499L52.5401 103.668L99.5593 111.255V63.8385V45.3463L133.573 63.8385H187.595L176.591 22.1124L221.109 45.3463L235.615 95.1331L253.622 55.3036L297.64 74.27L294.138 59.5711L373.671 15L428.693 45.3463L411.186 85.6499H443.199H501.723L473.712 103.668L457.705 150.136L496.221 163.886L566.75 129.747L619.271 119.789L610.767 59.5711L663.289 74.27H673.293L700.304 155.351L720.812 129.747L737.319 177.637L825.355 144.446L731.317 90.8656C760.662 80.4341 821.153 58.7176 828.356 55.3036C835.559 51.8897 785.339 60.8355 759.328 65.7351L858.868 25.9057L928.397 32.5439L959.409 35.863L828.356 103.668L874.375 116.47L882.378 85.6499L913.891 119.789V85.6499L963.911 59.5711L991.923 72.8475L1053.45 103.668L1005.93 129.747L968.913 125.479L997.925 142.075H1064.45L991.923 170.999L1032.94 184.749L1012.43 219.363L1117.47 226.001L1101.97 266.779L1182 251.132V393.854H1134.98L1037.94 352.128L1090.96 408.079L1037.94 417.562L1012.43 439.373L1005.93 366.827L954.407 408.079L959.409 434.158L991.923 449.805L985.42 480.151L968.913 503.859C977.75 510.339 995.924 522.541 997.925 519.506C999.926 516.472 1008.43 515.713 1012.43 515.713L1058.45 523.3L1107.47 568.819L1022.94 647.53L1029.44 559.81L1012.43 603.907L1005.93 594.898L963.911 603.907L928.397 568.819L905.387 531.36L900.886 547.956L844.363 559.81L840.361 568.819L877.876 615.761L840.361 651.797L860.869 691.627L821.853 680.721L757.327 647.53L731.317 664.599L749.324 677.402L753.826 691.627C754.993 698.265 757.327 710.688 757.327 707.274C757.327 703.86 760.662 724.502 762.329 735.249L682.297 691.627L657.286 739.043V696.368L661.288 647.53L633.777 615.761L608.767 677.402L566.75 615.761L576.253 668.393L566.75 691.627L491.719 743.31L522.231 691.627L511.227 635.676L500.222 677.402L477.713 703.006L406.184 665.074L355.163 677.402H319.649L269.629 650.849L245.119 593.95L241.117 627.141L231.113 635.676L222.109 665.074L120.068 668.393L172.589 627.141L120.068 602.484L94.5572 598.691L58.0424 553.172L25.0289 606.752H52.5401Z" stroke="#E6E6E6" stroke-opacity="0.25" stroke-linecap="round" shape-rendering="crispEdges"/>
</g>
<defs>
<filter id="filter0_dddf_775_348" x="6.1" y="2.96719" width="1189.86" height="755.999" filterUnits="userSpaceOnUse" color-interpolation-filters="sRGB">
<feFlood flood-opacity="0" result="BackgroundImageFix"/>
<feColorMatrix in="SourceAlpha" type="matrix" values="0 0 0 0 0 0 0 0 0 0 0 0 0 0 0 0 0 0 127 0" result="hardAlpha"/>
<feOffset/>
<feGaussianBlur stdDeviation="2"/>
<feComposite in2="hardAlpha" operator="out"/>
<feColorMatrix type="matrix" values="0 0 0 0 1 0 0 0 0 1 0 0 0 0 1 0 0 0 1 0"/>
<feBlend mode="normal" in2="BackgroundImageFix" result="effect1_dropShadow_775_348"/>
<feColorMatrix in="SourceAlpha" type="matrix" values="0 0 0 0 0 0 0 0 0 0 0 0 0 0 0 0 0 0 127 0" result="hardAlpha"/>
<feOffset/>
<feGaussianBlur stdDeviation="5.95"/>
<feComposite in2="hardAlpha" operator="out"/>
<feColorMatrix type="matrix" values="0 0 0 0 0.520053 0 0 0 0 0.726561 0 0 0 0 0.829815 0 0 0 0.98 0"/>
<feBlend mode="normal" in2="effect1_dropShadow_775_348" result="effect2_dropShadow_775_348"/>
<feColorMatrix in="SourceAlpha" type="matrix" values="0 0 0 0 0 0 0 0 0 0 0 0 0 0 0 0 0 0 127 0" result="hardAlpha"/>
<feOffset/>
<feGaussianBlur stdDeviation="2"/>
<feComposite in2="hardAlpha" operator="out"/>
<feColorMatrix type="matrix" values="0 0 0 0 0.520183 0 0 0 0 0.777899 0 0 0 0 0.906757 0 0 0 0.98 0"/>
<feBlend mode="normal" in2="effect2_dropShadow_775_348" result="effect3_dropShadow_775_348"/>
<feBlend mode="normal" in="SourceGraphic" in2="effect3_dropShadow_775_348" result="shape"/>
<feGaussianBlur stdDeviation="0.5" result="effect4_foregroundBlur_775_348"/>
</filter>
<filter id="filter1_dddf_775_348" x="-58.4117" y="2.52773" width="1252.81" height="759.436" filterUnits="userSpaceOnUse" color-interpolation-filters="sRGB">
<feFlood flood-opacity="0" result="BackgroundImageFix"/>
<feColorMatrix in="SourceAlpha" type="matrix" values="0 0 0 0 0 0 0 0 0 0 0 0 0 0 0 0 0 0 127 0" result="hardAlpha"/>
<feOffset/>
<feGaussianBlur stdDeviation="2"/>
<feComposite in2="hardAlpha" operator="out"/>
<feColorMatrix type="matrix" values="0 0 0 0 1 0 0 0 0 1 0 0 0 0 1 0 0 0 1 0"/>
<feBlend mode="normal" in2="BackgroundImageFix" result="effect1_dropShadow_775_348"/>
<feColorMatrix in="SourceAlpha" type="matrix" values="0 0 0 0 0 0 0 0 0 0 0 0 0 0 0 0 0 0 127 0" result="hardAlpha"/>
<feOffset/>
<feGaussianBlur stdDeviation="5.95"/>
<feComposite in2="hardAlpha" operator="out"/>
<feColorMatrix type="matrix" values="0 0 0 0 0.709473 0 0 0 0 0.903158 0 0 0 0 1 0 0 0 0.98 0"/>
<feBlend mode="normal" in2="effect1_dropShadow_775_348" result="effect2_dropShadow_775_348"/>
<feColorMatrix in="SourceAlpha" type="matrix" values="0 0 0 0 0 0 0 0 0 0 0 0 0 0 0 0 0 0 127 0" result="hardAlpha"/>
<feOffset/>
<feGaussianBlur stdDeviation="2"/>
<feComposite in2="hardAlpha" operator="out"/>
<feColorMatrix type="matrix" values="0 0 0 0 0.674372 0 0 0 0 0.888628 0 0 0 0 0.995756 0 0 0 0.98 0"/>
<feBlend mode="normal" in2="effect2_dropShadow_775_348" result="effect3_dropShadow_775_348"/>
<feBlend mode="normal" in="SourceGraphic" in2="effect3_dropShadow_775_348" result="shape"/>
<feGaussianBlur stdDeviation="0.5" result="effect4_foregroundBlur_775_348"/>
</filter>
</defs>
</svg>
