<svg width="191" height="95" viewBox="0 0 191 95" fill="none" xmlns="http://www.w3.org/2000/svg">
<g filter="url(#filter0_d_474_675)">
<path d="M143.357 19.3999C158.705 19.3999 171.147 31.8015 171.147 47.0996C171.147 62.3977 158.705 74.7993 143.357 74.7993C133.703 74.7993 125.199 69.8923 120.218 62.4441C119.892 61.9564 119.158 61.9564 118.832 62.4441C113.851 69.8923 105.347 74.7993 95.6925 74.7993C85.7725 74.7993 77.0666 69.6183 72.1495 61.823C71.8254 61.3091 71.0552 61.3091 70.731 61.823C65.8139 69.6183 57.108 74.7993 47.1881 74.7993C31.8403 74.7993 19.3984 62.3977 19.3984 47.0996C19.3984 31.8015 31.8403 19.3999 47.1881 19.3999C57.108 19.3999 65.8139 24.5808 70.731 32.3761C71.0552 32.89 71.8254 32.89 72.1495 32.3761C77.0666 24.5808 85.7725 19.3999 95.6925 19.3999C105.347 19.3999 113.851 24.3068 118.832 31.755C119.158 32.2427 119.892 32.2427 120.218 31.755C125.199 24.3068 133.703 19.3999 143.357 19.3999ZM143.357 21.6782C134.068 21.6782 125.939 26.6235 121.476 34.0223L120.192 36.1497C119.889 36.6522 119.161 36.6522 118.858 36.1497L117.574 34.0223C113.111 26.6235 104.982 21.6782 95.6925 21.6782C86.1295 21.6782 77.7954 26.9199 73.4257 34.683L72.1195 37.0035C71.8214 37.533 71.0591 37.533 70.761 37.0035L69.4549 34.683C65.0851 26.9199 56.751 21.6782 47.1881 21.6782C33.0916 21.6782 21.6768 33.0667 21.6768 47.0996C21.6768 61.1325 33.0916 72.5209 47.1881 72.5209C56.751 72.5209 65.0851 67.2792 69.4549 59.5161L70.761 57.1956C71.0591 56.6661 71.8214 56.6661 72.1195 57.1956L73.4257 59.5161C77.7954 67.2792 86.1295 72.5209 95.6925 72.5209C104.982 72.5209 113.111 67.5756 117.574 60.1768L118.858 58.0494C119.161 57.547 119.889 57.547 120.192 58.0494L121.476 60.1768C125.939 67.5756 134.068 72.5209 143.357 72.5209C157.454 72.5209 168.869 61.1325 168.869 47.0996C168.869 33.0667 157.454 21.6782 143.357 21.6782Z" stroke="#FF7DAF" shape-rendering="crispEdges"/>
</g>
<defs>
<filter id="filter0_d_474_675" x="-0.00156212" y="-9.72748e-05" width="190.55" height="94.1994" filterUnits="userSpaceOnUse" color-interpolation-filters="sRGB">
<feFlood flood-opacity="0" result="BackgroundImageFix"/>
<feColorMatrix in="SourceAlpha" type="matrix" values="0 0 0 0 0 0 0 0 0 0 0 0 0 0 0 0 0 0 127 0" result="hardAlpha"/>
<feOffset/>
<feGaussianBlur stdDeviation="9.45"/>
<feComposite in2="hardAlpha" operator="out"/>
<feColorMatrix type="matrix" values="0 0 0 0 0.917647 0 0 0 0 0.262745 0 0 0 0 0.211765 0 0 0 1 0"/>
<feBlend mode="normal" in2="BackgroundImageFix" result="effect1_dropShadow_474_675"/>
<feBlend mode="normal" in="SourceGraphic" in2="effect1_dropShadow_474_675" result="shape"/>
</filter>
</defs>
</svg>
