<svg width="89" height="87" viewBox="0 0 89 87" fill="none" xmlns="http://www.w3.org/2000/svg">
<g filter="url(#filter0_d_474_685)">
<path d="M21.8354 34.7904H66.3857M21.8354 51.7388H66.3857M68.3227 43.3857C68.3227 56.3565 57.4825 66.8714 44.1106 66.8714C30.7386 66.8714 19.8984 56.3565 19.8984 43.3857C19.8984 30.4148 30.7386 19.8999 44.1106 19.8999C57.4825 19.8999 68.3227 30.4148 68.3227 43.3857ZM55.2481 43.3857C55.2481 56.3565 50.3701 66.8714 44.3527 66.8714C38.3353 66.8714 33.4572 56.3565 33.4572 43.3857C33.4572 30.4148 38.3353 19.8999 44.3527 19.8999C50.3701 19.8999 55.2481 30.4148 55.2481 43.3857Z" stroke="#FF7DAF" stroke-width="2" shape-rendering="crispEdges"/>
</g>
<defs>
<filter id="filter0_d_474_685" x="-0.00156212" y="-9.72748e-05" width="88.2258" height="86.7717" filterUnits="userSpaceOnUse" color-interpolation-filters="sRGB">
<feFlood flood-opacity="0" result="BackgroundImageFix"/>
<feColorMatrix in="SourceAlpha" type="matrix" values="0 0 0 0 0 0 0 0 0 0 0 0 0 0 0 0 0 0 127 0" result="hardAlpha"/>
<feOffset/>
<feGaussianBlur stdDeviation="9.45"/>
<feComposite in2="hardAlpha" operator="out"/>
<feColorMatrix type="matrix" values="0 0 0 0 1 0 0 0 0 0.490196 0 0 0 0 0.686275 0 0 0 1 0"/>
<feBlend mode="normal" in2="BackgroundImageFix" result="effect1_dropShadow_474_685"/>
<feBlend mode="normal" in="SourceGraphic" in2="effect1_dropShadow_474_685" result="shape"/>
</filter>
</defs>
</svg>
