<svg width="47" height="46" viewBox="0 0 47 46" fill="none" xmlns="http://www.w3.org/2000/svg">
<path d="M1.02182 38.0111V26.5488M7.67198 1H19.1779M7.62053 6.99001V1.02871M1 18.8937V7.05441M1.12126 7.02229H7.6208M7.00469 38.0626H1.04339M19.2313 44.6803H7.06831M7.03696 44.5619V38.0623M1.08317 18.8941H8.54642M1.08317 26.5279H8.54642M8.54642 26.4433V18.9801M45.7409 38.0293V26.567M39.0908 1.00707H26.8561M39.1422 7.0082V1.0469M45.7628 18.9119V7.0726M45.6415 7.04048H39.142M39.7581 38.0808H45.7194M26.9417 44.6974L39.6933 44.6969M39.7265 44.5798V38.0802M45.6795 18.9121H38.2162M45.6795 26.5459H38.2162M38.2162 26.4613V18.9981M19.1774 1.0473V8.51055M26.8112 1.0473V8.51055M26.7266 8.51055H19.2633M26.897 44.6834V37.2201M19.2632 44.6834V37.2201M19.3478 37.2201H26.811M19.2582 18.8908H26.8157V26.5329H19.2582V18.8908Z" stroke="#F9AC02" stroke-width="2"/>
</svg>
